<svg xmlns="http://www.w3.org/2000/svg" width="284" height="67" viewBox="0 0 211.058 48.76">
  <g id="Holcim_Logo_2021_sRGB" transform="translate(0 0.004)">
    <path id="Pfad_12978" data-name="Pfad 12978" d="M78.387,18.939h6.8v9.124h8.986V18.939h6.8V43.318h-6.8V34.054H85.189v9.264h-6.8ZM106.868,31.2v-.069c0-7,5.551-12.677,13.125-12.677s13.055,5.607,13.055,12.607v.07c0,7-5.552,12.676-13.125,12.676S106.868,38.2,106.868,31.2Zm19.238,0v-.069c0-3.518-2.432-6.582-6.183-6.582-3.716,0-6.078,2.994-6.078,6.512v.07c0,3.517,2.432,6.582,6.148,6.582C123.743,37.711,126.105,34.716,126.105,31.2ZM139.25,18.939h6.8V37.4H157.3v5.92H139.25ZM160.714,31.2v-.069a12.567,12.567,0,0,1,12.937-12.677,12.042,12.042,0,0,1,10.413,5.085l-5.119,3.935a6.581,6.581,0,0,0-5.364-2.856c-3.436,0-5.855,2.891-5.855,6.443v.07c0,3.656,2.419,6.512,5.855,6.512,2.559,0,4.067-1.184,5.54-2.96L184.24,38.3a12.829,12.829,0,0,1-23.526-7.1Zm29.644-12.259H197.2V43.318h-6.837Zm13.87,0h7.187l6.239,9.438,6.239-9.438h7.187V43.318h-6.766V29.063l-6.66,9.543h-.141l-6.624-9.473V43.318h-6.662Z" transform="translate(-20.023 -4.714)" fill="#fff"/>
    <path id="Pfad_12979" data-name="Pfad 12979" d="M32.286,0A13.7,13.7,0,0,0,18.671,10.592a25.186,25.186,0,0,0-.532,5.584v4.743H28.294V10.149h7.983V27.656A14.162,14.162,0,0,0,46.433,14.094,13.949,13.949,0,0,0,32.286,0ZM14.021,48.753A13.84,13.84,0,0,0,27.762,38.16a25.186,25.186,0,0,0,.532-5.584V27.833H18.138V38.6H10.156V21.1A14.162,14.162,0,0,0,0,34.659c0,8.269,5.748,14.094,14.021,14.094Z" transform="translate(0 0)" fill="#fff"/>
  </g>
</svg>
